<svg width="800" height="150" xmlns="http://www.w3.org/2000/svg"><style>
        .day-empty { fill: #ebedf0; }
        .day-level-1 { fill: #9be9a8; }
        .day-level-2 { fill: #40c463; }
        .day-level-3 { fill: #30a14e; }
        .day-level-4 { fill: #216e39; }
        .month-label { font: 12px sans-serif; fill: #586069; }
    </style><rect x="0" y="86" width="11" height="11" class="day-level-2"><title>Jan 1, 2026: 23 commands</title></rect><rect x="0" y="100" width="11" height="11" class="day-level-2"><title>Jan 2, 2026: 24 commands</title></rect><rect x="0" y="114" width="11" height="11" class="day-level-1"><title>Jan 3, 2026: 5 commands</title></rect><rect x="14" y="30" width="11" height="11" class="day-level-1"><title>Jan 4, 2026: 6 commands</title></rect><rect x="14" y="44" width="11" height="11" class="day-level-3"><title>Jan 5, 2026: 32 commands</title></rect><rect x="14" y="58" width="11" height="11" class="day-level-3"><title>Jan 6, 2026: 33 commands</title></rect><rect x="14" y="72" width="11" height="11" class="day-level-2"><title>Jan 7, 2026: 22 commands</title></rect><rect x="14" y="86" width="11" height="11" class="day-level-2"><title>Jan 8, 2026: 23 commands</title></rect><rect x="14" y="100" width="11" height="11" class="day-level-2"><title>Jan 9, 2026: 24 commands</title></rect><rect x="14" y="114" width="11" height="11" class="day-level-1"><title>Jan 10, 2026: 5 commands</title></rect><rect x="28" y="30" width="11" height="11" class="day-empty"><title>Jan 11, 2026: 0 commands</title></rect><rect x="28" y="44" width="11" height="11" class="day-level-3"><title>Jan 12, 2026: 32 commands</title></rect><rect x="28" y="58" width="11" height="11" class="day-level-3"><title>Jan 13, 2026: 33 commands</title></rect><rect x="28" y="72" width="11" height="11" class="day-level-2"><title>Jan 14, 2026: 22 commands</title></rect><rect x="28" y="86" width="11" height="11" class="day-level-2"><title>Jan 15, 2026: 23 commands</title></rect><rect x="28" y="100" width="11" height="11" class="day-level-2"><title>Jan 16, 2026: 24 commands</title></rect><rect x="28" y="114" width="11" height="11" class="day-level-1"><title>Jan 17, 2026: 5 commands</title></rect><rect x="42" y="30" width="11" height="11" class="day-level-1"><title>Jan 18, 2026: 6 commands</title></rect><rect x="42" y="44" width="11" height="11" class="day-level-3"><title>Jan 19, 2026: 32 commands</title></rect><rect x="42" y="58" width="11" height="11" class="day-level-3"><title>Jan 20, 2026: 33 commands</title></rect><rect x="42" y="72" width="11" height="11" class="day-level-2"><title>Jan 21, 2026: 22 commands</title></rect><rect x="42" y="86" width="11" height="11" class="day-empty"><title>Jan 22, 2026: 0 commands</title></rect><rect x="42" y="100" width="11" height="11" class="day-level-4"><title>Jan 23, 2026: 50 commands</title></rect><rect x="42" y="114" width="11" height="11" class="day-level-1"><title>Jan 24, 2026: 5 commands</title></rect><rect x="56" y="30" width="11" height="11" class="day-level-1"><title>Jan 25, 2026: 6 commands</title></rect><rect x="56" y="44" width="11" height="11" class="day-level-3"><title>Jan 26, 2026: 32 commands</title></rect><rect x="56" y="58" width="11" height="11" class="day-level-3"><title>Jan 27, 2026: 33 commands</title></rect><rect x="56" y="72" width="11" height="11" class="day-level-2"><title>Jan 28, 2026: 22 commands</title></rect><rect x="56" y="86" width="11" height="11" class="day-level-2"><title>Jan 29, 2026: 23 commands</title></rect><rect x="56" y="100" width="11" height="11" class="day-level-2"><title>Jan 30, 2026: 24 commands</title></rect><rect x="56" y="114" width="11" height="11" class="day-level-1"><title>Jan 31, 2026: 5 commands</title></rect><rect x="70" y="30" width="11" height="11" class="day-level-1"><title>Feb 1, 2026: 6 commands</title></rect><rect x="70" y="44" width="11" height="11" class="day-empty"><title>Feb 2, 2026: 0 commands</title></rect><rect x="70" y="58" width="11" height="11" class="day-level-3"><title>Feb 3, 2026: 33 commands</title></rect><rect x="70" y="72" width="11" height="11" class="day-level-2"><title>Feb 4, 2026: 22 commands</title></rect><rect x="70" y="86" width="11" height="11" class="day-level-2"><title>Feb 5, 2026: 23 commands</title></rect><rect x="70" y="100" width="11" height="11" class="day-level-2"><title>Feb 6, 2026: 24 commands</title></rect><rect x="70" y="114" width="11" height="11" class="day-level-1"><title>Feb 7, 2026: 5 commands</title></rect><rect x="84" y="30" width="11" height="11" class="day-level-1"><title>Feb 8, 2026: 6 commands</title></rect><rect x="84" y="44" width="11" height="11" class="day-level-3"><title>Feb 9, 2026: 32 commands</title></rect><rect x="84" y="58" width="11" height="11" class="day-level-3"><title>Feb 10, 2026: 33 commands</title></rect><rect x="84" y="72" width="11" height="11" class="day-level-2"><title>Feb 11, 2026: 22 commands</title></rect><rect x="84" y="86" width="11" height="11" class="day-level-2"><title>Feb 12, 2026: 23 commands</title></rect><rect x="84" y="100" width="11" height="11" class="day-empty"><title>Feb 13, 2026: 0 commands</title></rect><rect x="84" y="114" width="11" height="11" class="day-level-1"><title>Feb 14, 2026: 5 commands</title></rect><rect x="98" y="30" width="11" height="11" class="day-level-1"><title>Feb 15, 2026: 10 commands</title></rect><rect x="98" y="44" width="11" height="11" class="day-level-3"><title>Feb 16, 2026: 32 commands</title></rect><rect x="98" y="58" width="11" height="11" class="day-level-3"><title>Feb 17, 2026: 33 commands</title></rect><rect x="98" y="72" width="11" height="11" class="day-level-2"><title>Feb 18, 2026: 22 commands</title></rect><rect x="98" y="86" width="11" height="11" class="day-level-2"><title>Feb 19, 2026: 23 commands</title></rect><rect x="98" y="100" width="11" height="11" class="day-level-2"><title>Feb 20, 2026: 24 commands</title></rect><rect x="98" y="114" width="11" height="11" class="day-level-1"><title>Feb 21, 2026: 5 commands</title></rect><rect x="112" y="30" width="11" height="11" class="day-level-1"><title>Feb 22, 2026: 6 commands</title></rect><rect x="112" y="44" width="11" height="11" class="day-level-3"><title>Feb 23, 2026: 32 commands</title></rect><rect x="112" y="58" width="11" height="11" class="day-empty"><title>Feb 24, 2026: 0 commands</title></rect><rect x="112" y="72" width="11" height="11" class="day-level-2"><title>Feb 25, 2026: 22 commands</title></rect><rect x="112" y="86" width="11" height="11" class="day-level-2"><title>Feb 26, 2026: 23 commands</title></rect><rect x="112" y="100" width="11" height="11" class="day-level-2"><title>Feb 27, 2026: 24 commands</title></rect><rect x="112" y="114" width="11" height="11" class="day-level-1"><title>Feb 28, 2026: 5 commands</title></rect><rect x="126" y="30" width="11" height="11" class="day-level-1"><title>Mar 1, 2026: 6 commands</title></rect><rect x="126" y="44" width="11" height="11" class="day-level-3"><title>Mar 2, 2026: 32 commands</title></rect><rect x="126" y="58" width="11" height="11" class="day-level-3"><title>Mar 3, 2026: 33 commands</title></rect><rect x="126" y="72" width="11" height="11" class="day-level-2"><title>Mar 4, 2026: 22 commands</title></rect><rect x="126" y="86" width="11" height="11" class="day-level-2"><title>Mar 5, 2026: 23 commands</title></rect><rect x="126" y="100" width="11" height="11" class="day-level-2"><title>Mar 6, 2026: 24 commands</title></rect><rect x="126" y="114" width="11" height="11" class="day-empty"><title>Mar 7, 2026: 0 commands</title></rect><rect x="140" y="30" width="11" height="11" class="day-level-1"><title>Mar 8, 2026: 6 commands</title></rect><rect x="140" y="44" width="11" height="11" class="day-level-3"><title>Mar 9, 2026: 32 commands</title></rect><rect x="140" y="58" width="11" height="11" class="day-level-4"><title>Mar 10, 2026: 60 commands</title></rect><rect x="140" y="72" width="11" height="11" class="day-level-2"><title>Mar 11, 2026: 22 commands</title></rect><rect x="140" y="86" width="11" height="11" class="day-level-2"><title>Mar 12, 2026: 23 commands</title></rect><rect x="140" y="100" width="11" height="11" class="day-level-2"><title>Mar 13, 2026: 24 commands</title></rect><rect x="140" y="114" width="11" height="11" class="day-level-1"><title>Mar 14, 2026: 5 commands</title></rect><rect x="154" y="30" width="11" height="11" class="day-level-1"><title>Mar 15, 2026: 6 commands</title></rect><rect x="154" y="44" width="11" height="11" class="day-level-3"><title>Mar 16, 2026: 32 commands</title></rect><rect x="154" y="58" width="11" height="11" class="day-level-3"><title>Mar 17, 2026: 33 commands</title></rect><rect x="154" y="72" width="11" height="11" class="day-empty"><title>Mar 18, 2026: 0 commands</title></rect><rect x="154" y="86" width="11" height="11" class="day-level-2"><title>Mar 19, 2026: 23 commands</title></rect><rect x="154" y="100" width="11" height="11" class="day-level-2"><title>Mar 20, 2026: 24 commands</title></rect><rect x="154" y="114" width="11" height="11" class="day-level-1"><title>Mar 21, 2026: 5 commands</title></rect><rect x="168" y="30" width="11" height="11" class="day-level-1"><title>Mar 22, 2026: 6 commands</title></rect><rect x="168" y="44" width="11" height="11" class="day-level-3"><title>Mar 23, 2026: 32 commands</title></rect><rect x="168" y="58" width="11" height="11" class="day-level-3"><title>Mar 24, 2026: 33 commands</title></rect><rect x="168" y="72" width="11" height="11" class="day-level-2"><title>Mar 25, 2026: 22 commands</title></rect><rect x="168" y="86" width="11" height="11" class="day-level-2"><title>Mar 26, 2026: 23 commands</title></rect><rect x="168" y="100" width="11" height="11" class="day-level-2"><title>Mar 27, 2026: 24 commands</title></rect><rect x="168" y="114" width="11" height="11" class="day-level-1"><title>Mar 28, 2026: 5 commands</title></rect><rect x="182" y="30" width="11" height="11" class="day-empty"><title>Mar 29, 2026: 0 commands</title></rect><rect x="182" y="44" width="11" height="11" class="day-level-3"><title>Mar 30, 2026: 32 commands</title></rect><rect x="182" y="58" width="11" height="11" class="day-level-3"><title>Mar 31, 2026: 33 commands</title></rect><rect x="182" y="72" width="11" height="11" class="day-level-2"><title>Apr 1, 2026: 22 commands</title></rect><rect x="182" y="86" width="11" height="11" class="day-level-4"><title>Apr 2, 2026: 50 commands</title></rect><rect x="182" y="100" width="11" height="11" class="day-level-2"><title>Apr 3, 2026: 24 commands</title></rect><rect x="182" y="114" width="11" height="11" class="day-level-1"><title>Apr 4, 2026: 5 commands</title></rect><rect x="196" y="30" width="11" height="11" class="day-level-1"><title>Apr 5, 2026: 6 commands</title></rect><rect x="196" y="44" width="11" height="11" class="day-level-3"><title>Apr 6, 2026: 32 commands</title></rect><rect x="196" y="58" width="11" height="11" class="day-level-3"><title>Apr 7, 2026: 33 commands</title></rect><rect x="196" y="72" width="11" height="11" class="day-level-2"><title>Apr 8, 2026: 22 commands</title></rect><rect x="196" y="86" width="11" height="11" class="day-empty"><title>Apr 9, 2026: 0 commands</title></rect><rect x="196" y="100" width="11" height="11" class="day-level-2"><title>Apr 10, 2026: 24 commands</title></rect><rect x="196" y="114" width="11" height="11" class="day-level-1"><title>Apr 11, 2026: 5 commands</title></rect><rect x="210" y="30" width="11" height="11" class="day-level-1"><title>Apr 12, 2026: 6 commands</title></rect><rect x="210" y="44" width="11" height="11" class="day-level-3"><title>Apr 13, 2026: 32 commands</title></rect><rect x="210" y="58" width="11" height="11" class="day-level-3"><title>Apr 14, 2026: 33 commands</title></rect><rect x="210" y="72" width="11" height="11" class="day-level-2"><title>Apr 15, 2026: 22 commands</title></rect><rect x="210" y="86" width="11" height="11" class="day-level-2"><title>Apr 16, 2026: 23 commands</title></rect><rect x="210" y="100" width="11" height="11" class="day-level-2"><title>Apr 17, 2026: 24 commands</title></rect><rect x="210" y="114" width="11" height="11" class="day-level-1"><title>Apr 18, 2026: 5 commands</title></rect><rect x="224" y="30" width="11" height="11" class="day-level-1"><title>Apr 19, 2026: 6 commands</title></rect><rect x="224" y="44" width="11" height="11" class="day-empty"><title>Apr 20, 2026: 0 commands</title></rect><rect x="224" y="58" width="11" height="11" class="day-level-3"><title>Apr 21, 2026: 33 commands</title></rect><rect x="224" y="72" width="11" height="11" class="day-level-2"><title>Apr 22, 2026: 22 commands</title></rect><rect x="224" y="86" width="11" height="11" class="day-level-2"><title>Apr 23, 2026: 23 commands</title></rect><rect x="224" y="100" width="11" height="11" class="day-level-2"><title>Apr 24, 2026: 24 commands</title></rect><rect x="224" y="114" width="11" height="11" class="day-level-1"><title>Apr 25, 2026: 10 commands</title></rect><rect x="238" y="30" width="11" height="11" class="day-level-1"><title>Apr 26, 2026: 6 commands</title></rect><rect x="238" y="44" width="11" height="11" class="day-level-3"><title>Apr 27, 2026: 32 commands</title></rect><rect x="238" y="58" width="11" height="11" class="day-level-3"><title>Apr 28, 2026: 33 commands</title></rect><rect x="238" y="72" width="11" height="11" class="day-level-2"><title>Apr 29, 2026: 22 commands</title></rect><rect x="238" y="86" width="11" height="11" class="day-level-2"><title>Apr 30, 2026: 23 commands</title></rect><rect x="238" y="100" width="11" height="11" class="day-empty"><title>May 1, 2026: 0 commands</title></rect><rect x="238" y="114" width="11" height="11" class="day-level-1"><title>May 2, 2026: 5 commands</title></rect><rect x="252" y="30" width="11" height="11" class="day-level-1"><title>May 3, 2026: 6 commands</title></rect><rect x="252" y="44" width="11" height="11" class="day-level-3"><title>May 4, 2026: 32 commands</title></rect><rect x="252" y="58" width="11" height="11" class="day-level-3"><title>May 5, 2026: 33 commands</title></rect><rect x="252" y="72" width="11" height="11" class="day-level-2"><title>May 6, 2026: 22 commands</title></rect><rect x="252" y="86" width="11" height="11" class="day-level-2"><title>May 7, 2026: 23 commands</title></rect><rect x="252" y="100" width="11" height="11" class="day-level-2"><title>May 8, 2026: 24 commands</title></rect><rect x="252" y="114" width="11" height="11" class="day-level-1"><title>May 9, 2026: 5 commands</title></rect><rect x="266" y="30" width="11" height="11" class="day-level-1"><title>May 10, 2026: 6 commands</title></rect><rect x="266" y="44" width="11" height="11" class="day-level-3"><title>May 11, 2026: 32 commands</title></rect><rect x="266" y="58" width="11" height="11" class="day-empty"><title>May 12, 2026: 0 commands</title></rect><rect x="266" y="72" width="11" height="11" class="day-level-2"><title>May 13, 2026: 22 commands</title></rect><rect x="266" y="86" width="11" height="11" class="day-level-2"><title>May 14, 2026: 23 commands</title></rect><rect x="266" y="100" width="11" height="11" class="day-level-2"><title>May 15, 2026: 24 commands</title></rect><rect x="266" y="114" width="11" height="11" class="day-level-1"><title>May 16, 2026: 5 commands</title></rect><rect x="280" y="30" width="11" height="11" class="day-level-1"><title>May 17, 2026: 6 commands</title></rect><rect x="280" y="44" width="11" height="11" class="day-level-4"><title>May 18, 2026: 60 commands</title></rect><rect x="280" y="58" width="11" height="11" class="day-level-3"><title>May 19, 2026: 33 commands</title></rect><rect x="280" y="72" width="11" height="11" class="day-level-2"><title>May 20, 2026: 22 commands</title></rect><rect x="280" y="86" width="11" height="11" class="day-level-2"><title>May 21, 2026: 23 commands</title></rect><rect x="280" y="100" width="11" height="11" class="day-level-2"><title>May 22, 2026: 24 commands</title></rect><rect x="280" y="114" width="11" height="11" class="day-empty"><title>May 23, 2026: 0 commands</title></rect><rect x="294" y="30" width="11" height="11" class="day-level-1"><title>May 24, 2026: 6 commands</title></rect><rect x="294" y="44" width="11" height="11" class="day-level-3"><title>May 25, 2026: 32 commands</title></rect><rect x="294" y="58" width="11" height="11" class="day-level-3"><title>May 26, 2026: 33 commands</title></rect><rect x="294" y="72" width="11" height="11" class="day-level-2"><title>May 27, 2026: 22 commands</title></rect><rect x="294" y="86" width="11" height="11" class="day-level-2"><title>May 28, 2026: 23 commands</title></rect><rect x="294" y="100" width="11" height="11" class="day-level-2"><title>May 29, 2026: 24 commands</title></rect><rect x="294" y="114" width="11" height="11" class="day-level-1"><title>May 30, 2026: 5 commands</title></rect><rect x="308" y="30" width="11" height="11" class="day-level-1"><title>May 31, 2026: 6 commands</title></rect><rect x="308" y="44" width="11" height="11" class="day-level-3"><title>Jun 1, 2026: 32 commands</title></rect><rect x="308" y="58" width="11" height="11" class="day-level-3"><title>Jun 2, 2026: 33 commands</title></rect><rect x="308" y="72" width="11" height="11" class="day-empty"><title>Jun 3, 2026: 0 commands</title></rect><rect x="308" y="86" width="11" height="11" class="day-level-2"><title>Jun 4, 2026: 23 commands</title></rect><rect x="308" y="100" width="11" height="11" class="day-level-2"><title>Jun 5, 2026: 24 commands</title></rect><rect x="308" y="114" width="11" height="11" class="day-level-1"><title>Jun 6, 2026: 5 commands</title></rect><rect x="322" y="30" width="11" height="11" class="day-level-1"><title>Jun 7, 2026: 6 commands</title></rect><rect x="322" y="44" width="11" height="11" class="day-level-3"><title>Jun 8, 2026: 32 commands</title></rect><rect x="322" y="58" width="11" height="11" class="day-level-3"><title>Jun 9, 2026: 33 commands</title></rect><rect x="322" y="72" width="11" height="11" class="day-level-4"><title>Jun 10, 2026: 50 commands</title></rect><rect x="322" y="86" width="11" height="11" class="day-level-2"><title>Jun 11, 2026: 23 commands</title></rect><rect x="322" y="100" width="11" height="11" class="day-level-2"><title>Jun 12, 2026: 24 commands</title></rect><rect x="322" y="114" width="11" height="11" class="day-level-1"><title>Jun 13, 2026: 5 commands</title></rect><rect x="336" y="30" width="11" height="11" class="day-empty"><title>Jun 14, 2026: 0 commands</title></rect><rect x="336" y="44" width="11" height="11" class="day-level-3"><title>Jun 15, 2026: 32 commands</title></rect><rect x="336" y="58" width="11" height="11" class="day-level-3"><title>Jun 16, 2026: 33 commands</title></rect><rect x="336" y="72" width="11" height="11" class="day-level-2"><title>Jun 17, 2026: 22 commands</title></rect><rect x="336" y="86" width="11" height="11" class="day-level-2"><title>Jun 18, 2026: 23 commands</title></rect><rect x="336" y="100" width="11" height="11" class="day-level-2"><title>Jun 19, 2026: 24 commands</title></rect><rect x="336" y="114" width="11" height="11" class="day-level-1"><title>Jun 20, 2026: 5 commands</title></rect><rect x="350" y="30" width="11" height="11" class="day-level-1"><title>Jun 21, 2026: 6 commands</title></rect><rect x="350" y="44" width="11" height="11" class="day-level-3"><title>Jun 22, 2026: 32 commands</title></rect><rect x="350" y="58" width="11" height="11" class="day-level-3"><title>Jun 23, 2026: 33 commands</title></rect><rect x="350" y="72" width="11" height="11" class="day-level-2"><title>Jun 24, 2026: 22 commands</title></rect><rect x="350" y="86" width="11" height="11" class="day-empty"><title>Jun 25, 2026: 0 commands</title></rect><rect x="350" y="100" width="11" height="11" class="day-level-2"><title>Jun 26, 2026: 24 commands</title></rect><rect x="350" y="114" width="11" height="11" class="day-level-1"><title>Jun 27, 2026: 5 commands</title></rect><rect x="364" y="30" width="11" height="11" class="day-level-1"><title>Jun 28, 2026: 6 commands</title></rect><rect x="364" y="44" width="11" height="11" class="day-level-3"><title>Jun 29, 2026: 32 commands</title></rect><rect x="364" y="58" width="11" height="11" class="day-level-3"><title>Jun 30, 2026: 33 commands</title></rect><rect x="364" y="72" width="11" height="11" class="day-level-2"><title>Jul 1, 2026: 22 commands</title></rect><rect x="364" y="86" width="11" height="11" class="day-level-2"><title>Jul 2, 2026: 23 commands</title></rect><rect x="364" y="100" width="11" height="11" class="day-level-4"><title>Jul 3, 2026: 50 commands</title></rect><rect x="364" y="114" width="11" height="11" class="day-level-1"><title>Jul 4, 2026: 5 commands</title></rect><rect x="378" y="30" width="11" height="11" class="day-level-1"><title>Jul 5, 2026: 6 commands</title></rect><rect x="378" y="44" width="11" height="11" class="day-empty"><title>Jul 6, 2026: 0 commands</title></rect><rect x="378" y="58" width="11" height="11" class="day-level-3"><title>Jul 7, 2026: 33 commands</title></rect><rect x="378" y="72" width="11" height="11" class="day-level-2"><title>Jul 8, 2026: 22 commands</title></rect><rect x="378" y="86" width="11" height="11" class="day-level-2"><title>Jul 9, 2026: 23 commands</title></rect><rect x="378" y="100" width="11" height="11" class="day-level-2"><title>Jul 10, 2026: 24 commands</title></rect><rect x="378" y="114" width="11" height="11" class="day-level-1"><title>Jul 11, 2026: 5 commands</title></rect><rect x="392" y="30" width="11" height="11" class="day-level-1"><title>Jul 12, 2026: 6 commands</title></rect><rect x="392" y="44" width="11" height="11" class="day-level-3"><title>Jul 13, 2026: 32 commands</title></rect><rect x="392" y="58" width="11" height="11" class="day-level-3"><title>Jul 14, 2026: 33 commands</title></rect><rect x="392" y="72" width="11" height="11" class="day-level-2"><title>Jul 15, 2026: 22 commands</title></rect><rect x="392" y="86" width="11" height="11" class="day-level-2"><title>Jul 16, 2026: 23 commands</title></rect><rect x="392" y="100" width="11" height="11" class="day-empty"><title>Jul 17, 2026: 0 commands</title></rect><rect x="392" y="114" width="11" height="11" class="day-level-1"><title>Jul 18, 2026: 5 commands</title></rect><rect x="406" y="30" width="11" height="11" class="day-level-1"><title>Jul 19, 2026: 6 commands</title></rect><rect x="406" y="44" width="11" height="11" class="day-level-3"><title>Jul 20, 2026: 32 commands</title></rect><rect x="406" y="58" width="11" height="11" class="day-level-3"><title>Jul 21, 2026: 33 commands</title></rect><rect x="406" y="72" width="11" height="11" class="day-level-2"><title>Jul 22, 2026: 22 commands</title></rect><rect x="406" y="86" width="11" height="11" class="day-level-2"><title>Jul 23, 2026: 23 commands</title></rect><rect x="406" y="100" width="11" height="11" class="day-level-2"><title>Jul 24, 2026: 24 commands</title></rect><rect x="406" y="114" width="11" height="11" class="day-level-1"><title>Jul 25, 2026: 5 commands</title></rect><rect x="420" y="30" width="11" height="11" class="day-level-1"><title>Jul 26, 2026: 10 commands</title></rect><rect x="420" y="44" width="11" height="11" class="day-level-3"><title>Jul 27, 2026: 32 commands</title></rect><rect x="420" y="58" width="11" height="11" class="day-empty"><title>Jul 28, 2026: 0 commands</title></rect><rect x="420" y="72" width="11" height="11" class="day-level-2"><title>Jul 29, 2026: 22 commands</title></rect><rect x="420" y="86" width="11" height="11" class="day-level-2"><title>Jul 30, 2026: 23 commands</title></rect><rect x="420" y="100" width="11" height="11" class="day-level-2"><title>Jul 31, 2026: 24 commands</title></rect><rect x="420" y="114" width="11" height="11" class="day-level-1"><title>Aug 1, 2026: 5 commands</title></rect><rect x="434" y="30" width="11" height="11" class="day-level-1"><title>Aug 2, 2026: 6 commands</title></rect><rect x="434" y="44" width="11" height="11" class="day-level-3"><title>Aug 3, 2026: 32 commands</title></rect><rect x="434" y="58" width="11" height="11" class="day-level-3"><title>Aug 4, 2026: 33 commands</title></rect><rect x="434" y="72" width="11" height="11" class="day-level-2"><title>Aug 5, 2026: 22 commands</title></rect><rect x="434" y="86" width="11" height="11" class="day-level-2"><title>Aug 6, 2026: 23 commands</title></rect><rect x="434" y="100" width="11" height="11" class="day-level-2"><title>Aug 7, 2026: 24 commands</title></rect><rect x="434" y="114" width="11" height="11" class="day-empty"><title>Aug 8, 2026: 0 commands</title></rect><rect x="448" y="30" width="11" height="11" class="day-level-1"><title>Aug 9, 2026: 6 commands</title></rect><rect x="448" y="44" width="11" height="11" class="day-level-3"><title>Aug 10, 2026: 32 commands</title></rect><rect x="448" y="58" width="11" height="11" class="day-level-3"><title>Aug 11, 2026: 33 commands</title></rect><rect x="448" y="72" width="11" height="11" class="day-level-2"><title>Aug 12, 2026: 22 commands</title></rect><rect x="448" y="86" width="11" height="11" class="day-level-2"><title>Aug 13, 2026: 23 commands</title></rect><rect x="448" y="100" width="11" height="11" class="day-level-2"><title>Aug 14, 2026: 24 commands</title></rect><rect x="448" y="114" width="11" height="11" class="day-level-1"><title>Aug 15, 2026: 5 commands</title></rect><rect x="462" y="30" width="11" height="11" class="day-level-1"><title>Aug 16, 2026: 6 commands</title></rect><rect x="462" y="44" width="11" height="11" class="day-level-3"><title>Aug 17, 2026: 32 commands</title></rect><rect x="462" y="58" width="11" height="11" class="day-level-4"><title>Aug 18, 2026: 60 commands</title></rect><rect x="462" y="72" width="11" height="11" class="day-empty"><title>Aug 19, 2026: 0 commands</title></rect><rect x="462" y="86" width="11" height="11" class="day-level-2"><title>Aug 20, 2026: 23 commands</title></rect><rect x="462" y="100" width="11" height="11" class="day-level-2"><title>Aug 21, 2026: 24 commands</title></rect><rect x="462" y="114" width="11" height="11" class="day-level-1"><title>Aug 22, 2026: 5 commands</title></rect><rect x="476" y="30" width="11" height="11" class="day-level-1"><title>Aug 23, 2026: 6 commands</title></rect><rect x="476" y="44" width="11" height="11" class="day-level-3"><title>Aug 24, 2026: 32 commands</title></rect><rect x="476" y="58" width="11" height="11" class="day-level-3"><title>Aug 25, 2026: 33 commands</title></rect><rect x="476" y="72" width="11" height="11" class="day-level-2"><title>Aug 26, 2026: 22 commands</title></rect><rect x="476" y="86" width="11" height="11" class="day-level-2"><title>Aug 27, 2026: 23 commands</title></rect><rect x="476" y="100" width="11" height="11" class="day-level-2"><title>Aug 28, 2026: 24 commands</title></rect><rect x="476" y="114" width="11" height="11" class="day-level-1"><title>Aug 29, 2026: 5 commands</title></rect><rect x="490" y="30" width="11" height="11" class="day-empty"><title>Aug 30, 2026: 0 commands</title></rect><rect x="490" y="44" width="11" height="11" class="day-level-3"><title>Aug 31, 2026: 32 commands</title></rect><rect x="490" y="58" width="11" height="11" class="day-level-3"><title>Sep 1, 2026: 33 commands</title></rect><rect x="490" y="72" width="11" height="11" class="day-level-2"><title>Sep 2, 2026: 22 commands</title></rect><rect x="490" y="86" width="11" height="11" class="day-level-2"><title>Sep 3, 2026: 23 commands</title></rect><rect x="490" y="100" width="11" height="11" class="day-level-2"><title>Sep 4, 2026: 24 commands</title></rect><rect x="490" y="114" width="11" height="11" class="day-level-1"><title>Sep 5, 2026: 5 commands</title></rect><rect x="504" y="30" width="11" height="11" class="day-level-1"><title>Sep 6, 2026: 6 commands</title></rect><rect x="504" y="44" width="11" height="11" class="day-level-3"><title>Sep 7, 2026: 32 commands</title></rect><rect x="504" y="58" width="11" height="11" class="day-level-3"><title>Sep 8, 2026: 33 commands</title></rect><rect x="504" y="72" width="11" height="11" class="day-level-2"><title>Sep 9, 2026: 22 commands</title></rect><rect x="504" y="86" width="11" height="11" class="day-level-4"><title>Sep 10, 2026: 50 commands</title></rect><rect x="504" y="100" width="11" height="11" class="day-level-2"><title>Sep 11, 2026: 24 commands</title></rect><rect x="504" y="114" width="11" height="11" class="day-level-1"><title>Sep 12, 2026: 5 commands</title></rect><rect x="518" y="30" width="11" height="11" class="day-level-1"><title>Sep 13, 2026: 6 commands</title></rect><rect x="518" y="44" width="11" height="11" class="day-level-3"><title>Sep 14, 2026: 32 commands</title></rect><rect x="518" y="58" width="11" height="11" class="day-level-3"><title>Sep 15, 2026: 33 commands</title></rect><rect x="518" y="72" width="11" height="11" class="day-level-2"><title>Sep 16, 2026: 22 commands</title></rect><rect x="518" y="86" width="11" height="11" class="day-level-2"><title>Sep 17, 2026: 23 commands</title></rect><rect x="518" y="100" width="11" height="11" class="day-level-2"><title>Sep 18, 2026: 24 commands</title></rect><rect x="518" y="114" width="11" height="11" class="day-level-1"><title>Sep 19, 2026: 5 commands</title></rect><rect x="532" y="30" width="11" height="11" class="day-level-1"><title>Sep 20, 2026: 6 commands</title></rect><rect x="532" y="44" width="11" height="11" class="day-empty"><title>Sep 21, 2026: 0 commands</title></rect><rect x="532" y="58" width="11" height="11" class="day-level-3"><title>Sep 22, 2026: 33 commands</title></rect><rect x="532" y="72" width="11" height="11" class="day-level-2"><title>Sep 23, 2026: 22 commands</title></rect><rect x="532" y="86" width="11" height="11" class="day-level-2"><title>Sep 24, 2026: 23 commands</title></rect><rect x="532" y="100" width="11" height="11" class="day-level-2"><title>Sep 25, 2026: 24 commands</title></rect><rect x="532" y="114" width="11" height="11" class="day-level-1"><title>Sep 26, 2026: 5 commands</title></rect><rect x="546" y="30" width="11" height="11" class="day-level-1"><title>Sep 27, 2026: 6 commands</title></rect><rect x="546" y="44" width="11" height="11" class="day-level-3"><title>Sep 28, 2026: 32 commands</title></rect><rect x="546" y="58" width="11" height="11" class="day-level-3"><title>Sep 29, 2026: 33 commands</title></rect><rect x="546" y="72" width="11" height="11" class="day-level-2"><title>Sep 30, 2026: 22 commands</title></rect><rect x="546" y="86" width="11" height="11" class="day-level-2"><title>Oct 1, 2026: 23 commands</title></rect><rect x="546" y="100" width="11" height="11" class="day-empty"><title>Oct 2, 2026: 0 commands</title></rect><rect x="546" y="114" width="11" height="11" class="day-level-1"><title>Oct 3, 2026: 10 commands</title></rect><rect x="560" y="30" width="11" height="11" class="day-level-1"><title>Oct 4, 2026: 6 commands</title></rect><rect x="560" y="44" width="11" height="11" class="day-level-3"><title>Oct 5, 2026: 32 commands</title></rect><rect x="560" y="58" width="11" height="11" class="day-level-3"><title>Oct 6, 2026: 33 commands</title></rect><rect x="560" y="72" width="11" height="11" class="day-level-2"><title>Oct 7, 2026: 22 commands</title></rect><rect x="560" y="86" width="11" height="11" class="day-level-2"><title>Oct 8, 2026: 23 commands</title></rect><rect x="560" y="100" width="11" height="11" class="day-level-2"><title>Oct 9, 2026: 24 commands</title></rect><rect x="560" y="114" width="11" height="11" class="day-level-1"><title>Oct 10, 2026: 5 commands</title></rect><rect x="574" y="30" width="11" height="11" class="day-level-1"><title>Oct 11, 2026: 6 commands</title></rect><rect x="574" y="44" width="11" height="11" class="day-level-3"><title>Oct 12, 2026: 32 commands</title></rect><rect x="574" y="58" width="11" height="11" class="day-empty"><title>Oct 13, 2026: 0 commands</title></rect><rect x="574" y="72" width="11" height="11" class="day-level-2"><title>Oct 14, 2026: 22 commands</title></rect><rect x="574" y="86" width="11" height="11" class="day-level-2"><title>Oct 15, 2026: 23 commands</title></rect><rect x="574" y="100" width="11" height="11" class="day-level-2"><title>Oct 16, 2026: 24 commands</title></rect><rect x="574" y="114" width="11" height="11" class="day-level-1"><title>Oct 17, 2026: 5 commands</title></rect><rect x="588" y="30" width="11" height="11" class="day-level-1"><title>Oct 18, 2026: 6 commands</title></rect><rect x="588" y="44" width="11" height="11" class="day-level-3"><title>Oct 19, 2026: 32 commands</title></rect><rect x="588" y="58" width="11" height="11" class="day-level-3"><title>Oct 20, 2026: 33 commands</title></rect><rect x="588" y="72" width="11" height="11" class="day-level-2"><title>Oct 21, 2026: 22 commands</title></rect><rect x="588" y="86" width="11" height="11" class="day-level-2"><title>Oct 22, 2026: 23 commands</title></rect><rect x="588" y="100" width="11" height="11" class="day-level-2"><title>Oct 23, 2026: 24 commands</title></rect><rect x="588" y="114" width="11" height="11" class="day-empty"><title>Oct 24, 2026: 0 commands</title></rect><rect x="602" y="30" width="11" height="11" class="day-level-1"><title>Oct 25, 2026: 6 commands</title></rect><rect x="602" y="44" width="11" height="11" class="day-level-4"><title>Oct 26, 2026: 60 commands</title></rect><rect x="602" y="58" width="11" height="11" class="day-level-3"><title>Oct 27, 2026: 33 commands</title></rect><rect x="602" y="72" width="11" height="11" class="day-level-2"><title>Oct 28, 2026: 22 commands</title></rect><rect x="602" y="86" width="11" height="11" class="day-level-2"><title>Oct 29, 2026: 23 commands</title></rect><rect x="602" y="100" width="11" height="11" class="day-level-2"><title>Oct 30, 2026: 24 commands</title></rect><rect x="602" y="114" width="11" height="11" class="day-level-1"><title>Oct 31, 2026: 5 commands</title></rect><rect x="616" y="30" width="11" height="11" class="day-level-1"><title>Nov 1, 2026: 6 commands</title></rect><rect x="616" y="44" width="11" height="11" class="day-level-3"><title>Nov 2, 2026: 32 commands</title></rect><rect x="616" y="58" width="11" height="11" class="day-level-3"><title>Nov 3, 2026: 33 commands</title></rect><rect x="616" y="72" width="11" height="11" class="day-empty"><title>Nov 4, 2026: 0 commands</title></rect><rect x="616" y="86" width="11" height="11" class="day-level-2"><title>Nov 5, 2026: 23 commands</title></rect><rect x="616" y="100" width="11" height="11" class="day-level-2"><title>Nov 6, 2026: 24 commands</title></rect><rect x="616" y="114" width="11" height="11" class="day-level-1"><title>Nov 7, 2026: 5 commands</title></rect><rect x="630" y="30" width="11" height="11" class="day-level-1"><title>Nov 8, 2026: 6 commands</title></rect><rect x="630" y="44" width="11" height="11" class="day-level-3"><title>Nov 9, 2026: 32 commands</title></rect><rect x="630" y="58" width="11" height="11" class="day-level-3"><title>Nov 10, 2026: 33 commands</title></rect><rect x="630" y="72" width="11" height="11" class="day-level-2"><title>Nov 11, 2026: 22 commands</title></rect><rect x="630" y="86" width="11" height="11" class="day-level-2"><title>Nov 12, 2026: 23 commands</title></rect><rect x="630" y="100" width="11" height="11" class="day-level-2"><title>Nov 13, 2026: 24 commands</title></rect><rect x="630" y="114" width="11" height="11" class="day-level-1"><title>Nov 14, 2026: 5 commands</title></rect><rect x="644" y="30" width="11" height="11" class="day-empty"><title>Nov 15, 2026: 0 commands</title></rect><rect x="644" y="44" width="11" height="11" class="day-level-3"><title>Nov 16, 2026: 32 commands</title></rect><rect x="644" y="58" width="11" height="11" class="day-level-3"><title>Nov 17, 2026: 33 commands</title></rect><rect x="644" y="72" width="11" height="11" class="day-level-4"><title>Nov 18, 2026: 50 commands</title></rect><rect x="644" y="86" width="11" height="11" class="day-level-2"><title>Nov 19, 2026: 23 commands</title></rect><rect x="644" y="100" width="11" height="11" class="day-level-2"><title>Nov 20, 2026: 24 commands</title></rect><rect x="644" y="114" width="11" height="11" class="day-level-1"><title>Nov 21, 2026: 5 commands</title></rect><rect x="658" y="30" width="11" height="11" class="day-level-1"><title>Nov 22, 2026: 6 commands</title></rect><rect x="658" y="44" width="11" height="11" class="day-level-3"><title>Nov 23, 2026: 32 commands</title></rect><rect x="658" y="58" width="11" height="11" class="day-level-3"><title>Nov 24, 2026: 33 commands</title></rect><rect x="658" y="72" width="11" height="11" class="day-level-2"><title>Nov 25, 2026: 22 commands</title></rect><rect x="658" y="86" width="11" height="11" class="day-empty"><title>Nov 26, 2026: 0 commands</title></rect><rect x="658" y="100" width="11" height="11" class="day-level-2"><title>Nov 27, 2026: 24 commands</title></rect><rect x="658" y="114" width="11" height="11" class="day-level-1"><title>Nov 28, 2026: 5 commands</title></rect><rect x="672" y="30" width="11" height="11" class="day-level-1"><title>Nov 29, 2026: 6 commands</title></rect><rect x="672" y="44" width="11" height="11" class="day-level-3"><title>Nov 30, 2026: 32 commands</title></rect><rect x="672" y="58" width="11" height="11" class="day-level-3"><title>Dec 1, 2026: 33 commands</title></rect><rect x="672" y="72" width="11" height="11" class="day-level-2"><title>Dec 2, 2026: 22 commands</title></rect><rect x="672" y="86" width="11" height="11" class="day-level-2"><title>Dec 3, 2026: 23 commands</title></rect><rect x="672" y="100" width="11" height="11" class="day-level-2"><title>Dec 4, 2026: 24 commands</title></rect><rect x="672" y="114" width="11" height="11" class="day-level-1"><title>Dec 5, 2026: 5 commands</title></rect><rect x="686" y="30" width="11" height="11" class="day-level-1"><title>Dec 6, 2026: 6 commands</title></rect><rect x="686" y="44" width="11" height="11" class="day-empty"><title>Dec 7, 2026: 0 commands</title></rect><rect x="686" y="58" width="11" height="11" class="day-level-3"><title>Dec 8, 2026: 33 commands</title></rect><rect x="686" y="72" width="11" height="11" class="day-level-2"><title>Dec 9, 2026: 22 commands</title></rect><rect x="686" y="86" width="11" height="11" class="day-level-2"><title>Dec 10, 2026: 23 commands</title></rect><rect x="686" y="100" width="11" height="11" class="day-level-4"><title>Dec 11, 2026: 50 commands</title></rect><rect x="686" y="114" width="11" height="11" class="day-level-1"><title>Dec 12, 2026: 5 commands</title></rect><rect x="700" y="30" width="11" height="11" class="day-level-1"><title>Dec 13, 2026: 6 commands</title></rect><rect x="700" y="44" width="11" height="11" class="day-level-3"><title>Dec 14, 2026: 32 commands</title></rect><rect x="700" y="58" width="11" height="11" class="day-level-3"><title>Dec 15, 2026: 33 commands</title></rect><rect x="700" y="72" width="11" height="11" class="day-level-2"><title>Dec 16, 2026: 22 commands</title></rect><rect x="700" y="86" width="11" height="11" class="day-level-2"><title>Dec 17, 2026: 23 commands</title></rect><rect x="700" y="100" width="11" height="11" class="day-empty"><title>Dec 18, 2026: 0 commands</title></rect><rect x="700" y="114" width="11" height="11" class="day-level-1"><title>Dec 19, 2026: 5 commands</title></rect><rect x="714" y="30" width="11" height="11" class="day-level-1"><title>Dec 20, 2026: 6 commands</title></rect><rect x="714" y="44" width="11" height="11" class="day-level-3"><title>Dec 21, 2026: 32 commands</title></rect><rect x="714" y="58" width="11" height="11" class="day-level-3"><title>Dec 22, 2026: 33 commands</title></rect><rect x="714" y="72" width="11" height="11" class="day-level-2"><title>Dec 23, 2026: 22 commands</title></rect><rect x="714" y="86" width="11" height="11" class="day-level-2"><title>Dec 24, 2026: 23 commands</title></rect><rect x="714" y="100" width="11" height="11" class="day-level-2"><title>Dec 25, 2026: 24 commands</title></rect><rect x="714" y="114" width="11" height="11" class="day-level-1"><title>Dec 26, 2026: 5 commands</title></rect><rect x="728" y="30" width="11" height="11" class="day-level-1"><title>Dec 27, 2026: 6 commands</title></rect><rect x="728" y="44" width="11" height="11" class="day-level-3"><title>Dec 28, 2026: 32 commands</title></rect><rect x="728" y="58" width="11" height="11" class="day-empty"><title>Dec 29, 2026: 0 commands</title></rect><rect x="728" y="72" width="11" height="11" class="day-level-2"><title>Dec 30, 2026: 22 commands</title></rect><rect x="728" y="86" width="11" height="11" class="day-level-2"><title>Dec 31, 2026: 23 commands</title></rect><text x="0" y="20" class="month-label">Jan</text><text x="65" y="20" class="month-label">Feb</text><text x="130" y="20" class="month-label">Mar</text><text x="195" y="20" class="month-label">Apr</text><text x="260" y="20" class="month-label">May</text><text x="325" y="20" class="month-label">Jun</text><text x="390" y="20" class="month-label">Jul</text><text x="455" y="20" class="month-label">Aug</text><text x="520" y="20" class="month-label">Sep</text><text x="585" y="20" class="month-label">Oct</text><text x="650" y="20" class="month-label">Nov</text><text x="715" y="20" class="month-label">Dec</text></svg>